<?xml version="1.0" standalone="no"?><!DOCTYPE svg PUBLIC "-//W3C//DTD SVG 1.1//EN" "http://www.w3.org/Graphics/SVG/1.1/DTD/svg11.dtd"><svg t="1596327425853" class="icon" viewBox="0 0 1024 1024" version="1.1" xmlns="http://www.w3.org/2000/svg" p-id="5454" xmlns:xlink="http://www.w3.org/1999/xlink" width="64" height="64"><defs><style type="text/css"></style></defs><path d="M62.4 487.3h401.5V85.8H62.4v401.5z m24.3-377.1h352.8V463H86.7V110.2zM62.4 933.4h401.5V531.9H62.4v401.5z m24.3-377.1h352.8v352.8H86.7V556.3z" fill="#cdcdcd" p-id="5455"></path><path d="M263.1 166.9h111.6v119.7H399v-144H263.1z" fill="#cdcdcd" p-id="5456"></path><path d="M372.934385 327.881129a12.2 12.2 0 1 0 23.746935-5.607412 12.2 12.2 0 1 0-23.746935 5.607412Z" fill="#cdcdcd" p-id="5457"></path><path d="M547.9 85.8h401.5v24.3H547.9zM547.9 207.5h401.5v24.3H547.9zM547.9 329.2h401.5v24.3H547.9zM547.9 450.8h401.5v24.3H547.9zM547.9 548.2h401.5v24.3H547.9zM547.9 669.8h401.5v24.3H547.9zM547.9 791.5h401.5v24.3H547.9zM547.9 913.2h401.5v24.3H547.9z"  p-id="5458"></path></svg>