<?xml version="1.0" standalone="no"?><!DOCTYPE svg PUBLIC "-//W3C//DTD SVG 1.1//EN" "http://www.w3.org/Graphics/SVG/1.1/DTD/svg11.dtd"><svg t="1596326641873" class="icon" viewBox="0 0 1024 1024" version="1.1" xmlns="http://www.w3.org/2000/svg" p-id="2651" xmlns:xlink="http://www.w3.org/1999/xlink" width="64" height="64"><defs><style type="text/css"></style></defs><path d="M897.427256 249.003144 126.57172 249.003144c-34.673707 0-62.73174-28.088732-62.73174-62.73174s28.058033-62.73174 62.73174-62.73174l770.855536 0c34.673707 0 62.73174 28.088732 62.73174 62.73174S932.101987 249.003144 897.427256 249.003144z" p-id="2652" fill="#cdcdcd"></path><path d="M897.427256 574.73174 126.57172 574.73174c-34.673707 0-62.73174-28.088732-62.73174-62.73174s28.058033-62.73174 62.73174-62.73174l770.855536 0c34.673707 0 62.73174 28.088732 62.73174 62.73174S932.101987 574.73174 897.427256 574.73174z" p-id="2653" fill="#cdcdcd"></path><path d="M897.427256 900.460336 126.57172 900.460336c-34.673707 0-62.73174-28.088732-62.73174-62.73174 0-34.643008 28.058033-62.73174 62.73174-62.73174l770.855536 0c34.673707 0 62.73174 28.088732 62.73174 62.73174C960.16002 872.371604 932.101987 900.460336 897.427256 900.460336z" p-id="2654" fill="#cdcdcd"></path></svg>